<?xml version="1.0" encoding="UTF-8"?>
<svg id="Layer_1" data-name="Layer 1" xmlns="http://www.w3.org/2000/svg" viewBox="0 0 522.04 104">
  <defs>
    <style>
      .cls-1 {
        fill: #231f20;
        stroke-width: 0px;
      }
    </style>
  </defs>
  <path class="cls-1" d="m35.72,26.3c-16.43,0-29.02,12.03-29.02,27.91s12.56,27.71,28.99,27.71,29.05-11.97,29.05-27.71-12.59-27.91-29.02-27.91Zm0,42.2c-8.39,0-14.82-6.26-14.82-14.4s6.43-14.46,14.82-14.46,14.82,6.3,14.82,14.46-6.43,14.4-14.82,14.4Z"/>
  <path class="cls-1" d="m91.61,27.71h-19.97v52.86h14.04v-15.58h5.94c11.08,0,19.97-8.56,19.97-18.76s-9.08-18.53-19.97-18.53Zm0,24.36l-5.94-.03v-11.38h5.94c3.74,0,6.43,2.43,6.43,5.64s-2.66,5.8-6.43,5.77Z"/>
  <polygon class="cls-1" points="117.56 80.57 151.83 80.57 151.83 67.43 131.43 67.43 131.43 59.85 148.22 59.85 148.22 48.14 131.43 48.14 131.43 40.77 151.83 40.77 151.83 27.71 117.56 27.71 117.56 80.57"/>
  <polygon class="cls-1" points="191.26 53.42 164.17 27.19 159.64 27.19 159.64 80.61 173.68 80.61 173.68 54.77 200.86 81.1 205.32 81.1 205.32 27.65 191.26 27.65 191.26 53.42"/>
  <path class="cls-1" d="m265.54,23.01h-2.14l-1.26,1.73-19.29,26.43-19.29-26.43-1.26-1.73h-11.99v61.77h22.46v-11.97l6.62,9.32,1.26,1.77h4.45l1.26-1.78,6.59-9.29v11.95h22.46V23.01h-9.85Zm5.64,57.56h-14.04v-20.95l-14.23,20.07h-.1l-14.26-20.07v20.95h-14.04V27.22h5.64l22.69,31.09,22.69-31.09h5.64v53.35Z"/>
  <path class="cls-1" d="m502.3,23.5h-38.48v39.68h-17.79V23.5h-22.46v6.97c-6.03-5.04-13.86-8.11-21.25-8.21h-.03s-.03,0-.03,0c-18.31,0-32.73,13.45-33.3,30.82-1.86-2.25-4.32-4.27-7.38-6.03l.28-.27,8.1-7.8,2.03-1.96-1.04-2.62c-2.81-7.09-10.8-11.68-20.34-11.68-11.52,0-20.79,7.02-22.59,16.5v-15.72h-22.56v37.82c0,1.86-1.87,3.1-3.63,3.1-1.48,0-3.56-.96-3.56-3.1V23.5h-22.56v37.86c0,14.2,11.24,24.9,26.15,24.9,10.71,0,19.5-5.54,23.62-13.92l.47,1.03c3.3,7.26,12.58,12.14,23.08,12.14,12.03,0,21.48-6.73,23.69-16.23,5.87,10.65,17.72,16.69,29.28,16.69,7.97,0,15.39-2.78,21.58-7.98v6.8h82.94v-21.57h-3.61v-18.24h3.61v-21.48h-4.21Zm-178.5,37.86c0,12.13-9.84,20.69-21.94,20.69s-21.94-8.56-21.94-20.69V27.71h14.13v33.61c0,4.39,3.77,7.31,7.77,7.31s7.84-2.98,7.84-7.31V27.71h14.13v33.65Zm3.2,7.1c.65-2.24,1.01-4.61,1.01-7.1v-15.3c.92,5.05,3.89,9.28,8.95,12.63l-1.63,1.6-8.33,8.17Zm22.03,12.84c-8.69,0-16.59-3.84-19.25-9.67l8.49-8.33c2.2,3.25,6.3,5.21,10.72,5.21,2.98,0,5.9-1.08,5.9-3.25,0-2.72-5.41-5.12-10.59-7.41-6.69-2.88-12.43-7.28-12.43-15.25,0-9.15,8.69-15.68,18.72-15.68,8.07,0,14.36,3.81,16.43,9.02l-8.1,7.8c-1.57-2.79-5.64-4-8.16-4-2.89,0-4.95,1.47-4.95,3.28,0,2.43,3.74,3.21,9.44,5.61,8.26,3.48,13.74,8.53,13.74,16.33,0,10.07-9.38,16.33-19.97,16.33Zm-6.81-19.76c.14.06.28.12.42.18,1.55.68,3.68,1.63,5.42,2.54-2.38-.21-4.51-1.2-5.83-2.72Zm59.78,20.22c-14.92,0-28.86-11.02-28.86-27.61,0-15.64,12.66-27.68,29.12-27.68,6.82.1,14.13,3.08,19.55,8l-8.07,10.36c-3.25-2.95-7.54-4.89-11.44-4.89-8.13,0-14.92,6.2-14.92,14.3s7.08,14.23,14.63,14.23c4.43,0,8.39-2.1,11.81-5.15l8,10.66c-5.05,4.59-11.77,7.77-19.81,7.77Zm15.17-20.96l-2.75-3.67-3.42,3.06c-3.03,2.71-6.05,4.08-9,4.08-5.03,0-10.41-4.03-10.41-10.02,0-5.66,4.7-10.09,10.71-10.09,2.74,0,6.04,1.45,8.61,3.79l3.36,3.06,2.79-3.59,6.51-8.37v30.27l-6.4-8.53Zm44.88,19.78h-34.27V27.71h14.04v39.68h20.23v13.18Zm40.25-39.81h-20.4v7.38h16.79v11.71h-16.79v7.58h20.4v13.15h-34.27V27.71h34.27v13.05Z"/>
</svg>